<svg width="100" height="32" fill="none" xmlns="http://www.w3.org/2000/svg"><path d="M9.924 4.666L6.494 12.9h6.984L9.924 4.666zM5.84 14.58c-.653 1.535-1.96 4.5-3.042 8.71-.388-.062-.715-.186-1.348-.186-.633 0-1.021.124-1.45.187C2.92 16.84 7.76 5.994 10.088 0c.265.041.47.104.817.104.286 0 .47-.042.714-.104 2.512 6.989 9.761 23.165 9.823 23.29a9.772 9.772 0 00-1.94-.187c-.858 0-1.47.104-2.104.187-1.143-3.982-2.49-6.886-3.308-8.71H5.84zm29.365-.768c0-1.1 0-5.516-3.92-5.516-2.86 0-4.228 2.198-4.534 5.516h8.454zm-8.474 1.39c0 .933 0 2.82.878 4.355 1.51 2.51 3.635 2.592 4.594 2.592 3.206 0 4.718-1.99 5.208-2.696l.388.083c-.205.933-.205 1.472-.225 1.99-1.45 1.39-3.43 2.178-6.085 2.178-4.983 0-8.026-3.193-8.026-8.316 0-4.583 2.492-8.44 7.862-8.44 7.31 0 7.209 6.45 7.168 8.254H26.731zm24.239-4.397c-.123-.498-.327-1.327-1.266-1.991-.694-.498-1.593-.56-2.124-.56-2.001 0-3.042 1.058-3.042 2.489 0 1.928 1.94 2.633 3.083 2.924 2.92.767 5.268 1.39 5.268 4.728 0 2.53-1.735 5.35-6.29 5.35-2.654 0-4.492-1.14-4.839-1.389.43-.808.695-2.219.756-2.654l.388-.104c.224.56.551 1.473 1.776 2.199.817.497 1.675.622 2.39.622 1.715 0 3.308-.83 3.308-2.738 0-1.887-1.123-2.26-4.554-3.401-1.41-.477-3.737-1.493-3.737-4.417 0-1.888 1.143-4.957 5.677-4.957 2.267 0 3.573.705 4.33 1.1-.328.87-.552 1.658-.654 2.799h-.47zm8.556 4.438c0 4.625 2.002 7.176 5.003 7.176 3.145 0 5.208-2.759 5.208-7.155 0-2.593-.797-7.01-5.044-7.01-5.167 0-5.167 5.973-5.167 6.989zm13.56-.104c0 5.289-3.594 8.607-8.577 8.607-3.472 0-8.332-1.597-8.332-8.42 0-5.185 3.41-8.42 8.332-8.42 6.208.02 8.576 4.169 8.576 8.233zm8.474-4.853c-.654.83-1.348 2.033-1.348 5.33 0 2.925.654 4.024 1.348 4.853.837 1.037 1.96 1.639 3.471 1.639 4.677 0 4.677-5.62 4.677-6.7 0-5.018-2.369-6.843-4.493-6.843-1.756-.02-2.9.747-3.655 1.721zm4.064 13.501c-3.084 0-4.82-1.72-5.35-3.09 0 5.227-.041 8.254.163 11.303-.49-.125-.92-.187-1.715-.187-.817 0-1.246.063-1.757.187.266-4.314.368-8.69.368-13.003 0-3.028-.061-7.114-.163-11.946.449.104.98.187 1.613.187.592 0 1.143-.104 1.613-.187-.123 1.825-.123 2.323-.123 3.028.531-.871 1.94-3.194 5.575-3.194 3.268 0 7.27 2.427 7.27 8.358-.02 5.247-3.206 8.544-7.494 8.544zM35.96 2.8h-9.045v1.037h9.046V2.8zm61.487 17.545v.912c.266 0 .878 0 .878-.477 0-.435-.47-.435-.878-.435zm1.573 2.281c-.082 0-.143-.02-.245-.02-.082 0-.164.02-.307.02-.408-.601-.735-.933-.96-1.203h-.081c0 .374 0 .664.04 1.203-.102 0-.142-.02-.265-.02-.122 0-.163.02-.224.02.02-.27.04-.56.04-1.286 0-.622-.02-.912-.02-1.182h.592c.592 0 1.205 0 1.205.58 0 .52-.551.602-.796.623.163.228.898 1.058 1.041 1.224l-.02.041zm-1.164-2.966c-.98 0-1.736.788-1.736 1.784 0 1.016.735 1.784 1.736 1.784 1 0 1.735-.768 1.735-1.784.02-.975-.694-1.784-1.735-1.784zm0-.394c1.204 0 2.144.975 2.144 2.178 0 1.224-.96 2.178-2.144 2.178-1.185 0-2.145-.954-2.145-2.178.02-1.224.98-2.178 2.145-2.178z" fill="#000"/></svg>