<svg width="14" height="18" viewBox="0 0 14 18" fill="none" xmlns="http://www.w3.org/2000/svg">
<path d="M2.7255 5.2857H11.353M10.4635 4.82327C10.2517 2.99027 8.7997 1.57141 7.03926 1.57141C5.27881 1.57141 3.8268 2.99027 3.61543 4.82327C3.58566 5.0777 3.39586 5.2857 3.15688 5.2857H2.72032C2.24711 5.2857 1.86275 5.69938 1.86275 6.2087L1 15.5056C1 16.0149 1.38479 16.4286 1.85757 16.4286H12.1424C12.6165 16.4286 13 16.0144 13 15.5056L12.1372 6.2087C12.1372 5.69938 11.7538 5.2857 11.2797 5.2857H10.9216C10.6835 5.2857 10.4933 5.0777 10.4635 4.82327Z" stroke="white" stroke-width="1.5" stroke-linecap="round" stroke-linejoin="round"/>
<path d="M1 16L2.5 6H11.5L13 16H1Z" fill="white"/>
</svg>
