<svg width="100" height="32" viewBox="0 0 100 32" fill="none" xmlns="http://www.w3.org/2000/svg">
<path d="M9.92444 4.66623L6.49377 12.8995H13.4776L9.92444 4.66623ZM5.84031 14.5794C5.18685 16.1141 3.87993 19.0797 2.79763 23.2897C2.40964 23.2275 2.08291 23.103 1.44987 23.103C0.816827 23.103 0.428834 23.2275 0 23.2897C2.92016 16.8399 7.75985 5.99352 10.0878 0C10.3533 0.0414776 10.5575 0.103694 10.9046 0.103694C11.1905 0.103694 11.3743 0.0622165 11.6194 0C14.1311 6.98898 21.3804 23.1653 21.4417 23.2897C20.8903 23.186 20.3186 23.103 19.5017 23.103C18.6441 23.103 18.0314 23.2067 17.3984 23.2897C16.2548 19.3078 14.9071 16.4044 14.0903 14.5794H5.84031Z" fill="black"/>
<path d="M35.2053 13.8121C35.2053 12.7129 35.2053 8.29553 31.2845 8.29553C28.4256 8.29553 27.0574 10.4938 26.7511 13.8121H35.2053ZM26.7307 15.2016C26.7307 16.1348 26.7307 18.022 27.6088 19.5567C29.1199 22.0661 31.2437 22.1491 32.2034 22.1491C35.4095 22.1491 36.9206 20.1581 37.4107 19.453L37.7987 19.536C37.5945 20.4692 37.5945 21.0084 37.5741 21.5269C36.1242 22.9164 34.1434 23.7045 31.4887 23.7045C26.5061 23.7045 23.4634 20.5107 23.4634 15.3882C23.4634 10.8049 25.9547 6.94751 31.3253 6.94751C38.6359 6.94751 38.5338 13.3973 38.493 15.2016H26.7307Z" fill="black"/>
<path d="M50.97 10.8049C50.8474 10.3072 50.6432 9.47762 49.7039 8.81398C49.0096 8.31625 48.1111 8.25403 47.5801 8.25403C45.5789 8.25403 44.5375 9.31171 44.5375 10.7427C44.5375 12.6714 46.4774 13.3765 47.621 13.6669C50.5411 14.4342 52.8895 15.0564 52.8895 18.3953C52.8895 20.9255 51.1538 23.7459 46.5999 23.7459C43.9453 23.7459 42.1074 22.6053 41.7603 22.3564C42.1891 21.5476 42.4546 20.1374 42.5158 19.7019L42.9038 19.5982C43.1284 20.1581 43.4552 21.0706 44.6804 21.7965C45.4972 22.2942 46.3549 22.4186 47.0696 22.4186C48.785 22.4186 50.3778 21.5891 50.3778 19.6811C50.3778 17.7939 49.2546 17.4206 45.824 16.28C44.4149 15.803 42.087 14.7868 42.087 11.8626C42.087 9.97535 43.2305 6.90601 47.7639 6.90601C50.0306 6.90601 51.3375 7.61113 52.0931 8.00516C51.7664 8.87619 51.5417 9.66427 51.4396 10.8049H50.97Z" fill="black"/>
<path d="M59.5262 15.243C59.5262 19.8678 61.5275 22.4186 64.5293 22.4186C67.6741 22.4186 69.7366 19.6604 69.7366 15.2638C69.7366 12.6714 68.9402 8.25403 64.6927 8.25403C59.5262 8.25403 59.5262 14.2268 59.5262 15.243ZM73.0855 15.1393C73.0855 20.4277 69.4915 23.7459 64.5089 23.7459C61.0374 23.7459 56.1772 22.149 56.1772 15.326C56.1772 10.1413 59.5875 6.90601 64.5089 6.90601C70.7168 6.92674 73.0855 11.0745 73.0855 15.1393Z" fill="black"/>
<path d="M81.56 10.2864C80.9065 11.116 80.2122 12.3188 80.2122 15.6163C80.2122 18.5405 80.8657 19.6396 81.56 20.4692C82.3972 21.5061 83.5204 22.1075 85.0315 22.1075C89.7078 22.1075 89.7078 16.4873 89.7078 15.4089C89.7078 10.3901 87.339 8.5651 85.2153 8.5651C83.4591 8.54436 82.3155 9.3117 81.56 10.2864ZM85.6237 23.7874C82.5402 23.7874 80.8044 22.0661 80.2735 20.6973C80.2735 25.9235 80.2326 28.9514 80.4368 32C79.9467 31.8755 79.5179 31.8133 78.7215 31.8133C77.9047 31.8133 77.4758 31.8755 76.9653 32C77.2308 27.6863 77.3329 23.3104 77.3329 18.9967C77.3329 15.9689 77.2716 11.8833 77.1695 7.05116C77.6188 7.15486 78.1497 7.23781 78.7828 7.23781C79.375 7.23781 79.9263 7.13412 80.396 7.05116C80.2735 8.87618 80.2735 9.37391 80.2735 10.079C80.8044 9.208 82.2134 6.88525 85.8483 6.88525C89.1156 6.88525 93.1181 9.3117 93.1181 15.243C93.0977 20.4899 89.912 23.7874 85.6237 23.7874Z" fill="black"/>
<path d="M35.9609 2.79974H26.9146V3.83668H35.9609V2.79974Z" fill="black"/>
<path d="M97.4472 20.3448C97.4472 20.6766 97.4472 20.9669 97.4472 21.2573C97.7127 21.2573 98.3253 21.2573 98.3253 20.7803C98.3253 20.3448 97.8556 20.3448 97.4472 20.3448ZM99.0196 22.626C98.9379 22.626 98.8766 22.6053 98.7745 22.6053C98.6928 22.6053 98.6112 22.626 98.4682 22.626C98.0598 22.0246 97.7331 21.6928 97.5084 21.4232H97.4268C97.4268 21.7965 97.4268 22.0868 97.4676 22.626C97.3655 22.626 97.3247 22.6053 97.2021 22.6053C97.0796 22.6053 97.0388 22.626 96.9775 22.626C96.9979 22.3564 97.0183 22.0661 97.0183 21.3402C97.0183 20.7181 96.9979 20.4277 96.9979 20.1581C97.1817 20.1581 97.3042 20.1581 97.5901 20.1581C98.1823 20.1581 98.7949 20.1581 98.7949 20.7388C98.7949 21.2573 98.2436 21.3402 97.9985 21.361C98.1619 21.5891 98.897 22.4187 99.04 22.5846L99.0196 22.626ZM97.8556 19.6604C96.8754 19.6604 96.1198 20.4485 96.1198 21.4439C96.1198 22.4601 96.855 23.2275 97.8556 23.2275C98.8562 23.2275 99.5914 22.4601 99.5914 21.4439C99.6118 20.4692 98.897 19.6604 97.8556 19.6604ZM97.8556 19.2664C99.0604 19.2664 99.9998 20.2411 99.9998 21.4439C99.9998 22.6675 99.04 23.6215 97.8556 23.6215C96.6712 23.6215 95.7114 22.6675 95.7114 21.4439C95.7318 20.2203 96.6916 19.2664 97.8556 19.2664Z" fill="black"/>
</svg>
